solid OpenSCAD_Model
  facet normal 1 0 0
    outer loop
      vertex 11.05 -5 0.5
      vertex 11.05 -35 0.5
      vertex 11.05 -5 0
    endloop
  endfacet
  facet normal 1 0 0
    outer loop
      vertex 11.05 5 0
      vertex 11.05 35 0.5
      vertex 11.05 5 0.5
    endloop
  endfacet
  facet normal 1 0 0
    outer loop
      vertex 11.05 35 0.5
      vertex 11.05 5 0
      vertex 11.05 35 -0.5
    endloop
  endfacet
  facet normal 1 -0 0
    outer loop
      vertex 11.05 -5 0
      vertex 11.05 35 -0.5
      vertex 11.05 5 0
    endloop
  endfacet
  facet normal 1 0 0
    outer loop
      vertex 11.05 -5 0
      vertex 11.05 -35 -0.5
      vertex 11.05 35 -0.5
    endloop
  endfacet
  facet normal 1 0 0
    outer loop
      vertex 11.05 -35 -0.5
      vertex 11.05 -5 0
      vertex 11.05 -35 0.5
    endloop
  endfacet
  facet normal 0 0 1
    outer loop
      vertex -3.5 35 0.5
      vertex -6.03333 33 0.5
      vertex -3.5 33 0.5
    endloop
  endfacet
  facet normal 0 0 1
    outer loop
      vertex -6.03333 33 0.5
      vertex -9.05 5 0.5
      vertex -6.03333 -33 0.5
    endloop
  endfacet
  facet normal -0 0 1
    outer loop
      vertex -11.05 35 0.5
      vertex -6.03333 33 0.5
      vertex -3.5 35 0.5
    endloop
  endfacet
  facet normal 0 0 1
    outer loop
      vertex -11.05 5 0.5
      vertex -6.03333 33 0.5
      vertex -11.05 35 0.5
    endloop
  endfacet
  facet normal 0 0 1
    outer loop
      vertex -6.03333 33 0.5
      vertex -11.05 5 0.5
      vertex -9.05 5 0.5
    endloop
  endfacet
  facet normal -0 0 1
    outer loop
      vertex -6.03333 -33 0.5
      vertex -3.5 -35 0.5
      vertex -3.5 -33 0.5
    endloop
  endfacet
  facet normal -0 0 1
    outer loop
      vertex -9.05 -5 0.5
      vertex -6.03333 -33 0.5
      vertex -9.05 5 0.5
    endloop
  endfacet
  facet normal -0 0 1
    outer loop
      vertex -11.05 -5 0.5
      vertex -6.03333 -33 0.5
      vertex -9.05 -5 0.5
    endloop
  endfacet
  facet normal 0 0 1
    outer loop
      vertex -6.03333 -33 0.5
      vertex -11.05 -35 0.5
      vertex -3.5 -35 0.5
    endloop
  endfacet
  facet normal 0 0 1
    outer loop
      vertex -11.05 -35 0.5
      vertex -6.03333 -33 0.5
      vertex -11.05 -5 0.5
    endloop
  endfacet
  facet normal -0 0 1
    outer loop
      vertex 6.03333 33 0.5
      vertex 11.05 5 0.5
      vertex 11.05 35 0.5
    endloop
  endfacet
  facet normal 0 0 1
    outer loop
      vertex 9.05 5 0.5
      vertex 6.03333 33 0.5
      vertex 9.05 -5 0.5
    endloop
  endfacet
  facet normal 0 0 1
    outer loop
      vertex 11.05 5 0.5
      vertex 6.03333 33 0.5
      vertex 9.05 5 0.5
    endloop
  endfacet
  facet normal -0 0 1
    outer loop
      vertex 3.5 35 0.5
      vertex 6.03333 33 0.5
      vertex 11.05 35 0.5
    endloop
  endfacet
  facet normal 0 0 1
    outer loop
      vertex 6.03333 33 0.5
      vertex 3.5 35 0.5
      vertex 3.5 33 0.5
    endloop
  endfacet
  facet normal 0 0 1
    outer loop
      vertex 6.03333 -33 0.5
      vertex 11.05 -5 0.5
      vertex 9.05 -5 0.5
    endloop
  endfacet
  facet normal 0 0 1
    outer loop
      vertex 6.03333 -33 0.5
      vertex 9.05 -5 0.5
      vertex 6.03333 33 0.5
    endloop
  endfacet
  facet normal 0 0 1
    outer loop
      vertex 11.05 -5 0.5
      vertex 6.03333 -33 0.5
      vertex 11.05 -35 0.5
    endloop
  endfacet
  facet normal 0 0 1
    outer loop
      vertex 3.5 -35 0.5
      vertex 6.03333 -33 0.5
      vertex 3.5 -33 0.5
    endloop
  endfacet
  facet normal 0 0 1
    outer loop
      vertex 6.03333 -33 0.5
      vertex 3.5 -35 0.5
      vertex 11.05 -35 0.5
    endloop
  endfacet
  facet normal 0 0 -1
    outer loop
      vertex 11.05 -35 -0.5
      vertex 6.03333 -33 -0.5
      vertex 11.05 35 -0.5
    endloop
  endfacet
  facet normal 0 0 -1
    outer loop
      vertex 11.05 -35 -0.5
      vertex -6.03333 -33 -0.5
      vertex 6.03333 -33 -0.5
    endloop
  endfacet
  facet normal -0 0 -1
    outer loop
      vertex -6.03333 -33 -0.5
      vertex -11.05 -35 -0.5
      vertex -6.03333 33 -0.5
    endloop
  endfacet
  facet normal 0 0 -1
    outer loop
      vertex -11.05 -35 -0.5
      vertex -6.03333 -33 -0.5
      vertex 11.05 -35 -0.5
    endloop
  endfacet
  facet normal 0 0 -1
    outer loop
      vertex 6.03333 33 -0.5
      vertex 11.05 35 -0.5
      vertex 6.03333 -33 -0.5
    endloop
  endfacet
  facet normal 0 0 -1
    outer loop
      vertex -6.03333 33 -0.5
      vertex 11.05 35 -0.5
      vertex 6.03333 33 -0.5
    endloop
  endfacet
  facet normal 0 0 -1
    outer loop
      vertex -6.03333 33 -0.5
      vertex -11.05 35 -0.5
      vertex 11.05 35 -0.5
    endloop
  endfacet
  facet normal 0 0 -1
    outer loop
      vertex -11.05 35 -0.5
      vertex -6.03333 33 -0.5
      vertex -11.05 -35 -0.5
    endloop
  endfacet
  facet normal -1 0 0
    outer loop
      vertex -11.05 35 -0.5
      vertex -11.05 5 0
      vertex -11.05 35 0.5
    endloop
  endfacet
  facet normal -1 0 0
    outer loop
      vertex -11.05 35 -0.5
      vertex -11.05 -5 0
      vertex -11.05 5 0
    endloop
  endfacet
  facet normal -1 0 0
    outer loop
      vertex -11.05 -35 -0.5
      vertex -11.05 -5 0
      vertex -11.05 35 -0.5
    endloop
  endfacet
  facet normal -1 0 0
    outer loop
      vertex -11.05 -35 0.5
      vertex -11.05 -5 0
      vertex -11.05 -35 -0.5
    endloop
  endfacet
  facet normal -1 0 0
    outer loop
      vertex -11.05 -5 0
      vertex -11.05 -35 0.5
      vertex -11.05 -5 0.5
    endloop
  endfacet
  facet normal -1 -0 0
    outer loop
      vertex -11.05 35 0.5
      vertex -11.05 5 0
      vertex -11.05 5 0.5
    endloop
  endfacet
  facet normal 0 1 -0
    outer loop
      vertex 11.05 35 -0.5
      vertex 3.5 35 0.5
      vertex 11.05 35 0.5
    endloop
  endfacet
  facet normal 0 1 0
    outer loop
      vertex 3.5 35 0.5
      vertex 11.05 35 -0.5
      vertex -3.5 35 0.5
    endloop
  endfacet
  facet normal 0 1 0
    outer loop
      vertex -11.05 35 -0.5
      vertex -3.5 35 0.5
      vertex 11.05 35 -0.5
    endloop
  endfacet
  facet normal 0 1 0
    outer loop
      vertex -3.5 35 0.5
      vertex -11.05 35 -0.5
      vertex -11.05 35 0.5
    endloop
  endfacet
  facet normal 0 1 -0
    outer loop
      vertex 3.5 35 0.5
      vertex -3.5 35 3
      vertex 3.5 35 3
    endloop
  endfacet
  facet normal 0 1 0
    outer loop
      vertex -3.5 35 3
      vertex 3.5 35 0.5
      vertex -3.5 35 0.5
    endloop
  endfacet
  facet normal 0 -1 0
    outer loop
      vertex -11.05 -35 -0.5
      vertex -3.5 -35 0.5
      vertex -11.05 -35 0.5
    endloop
  endfacet
  facet normal 0 -1 -0
    outer loop
      vertex -3.5 -35 0.5
      vertex -11.05 -35 -0.5
      vertex 3.5 -35 0.5
    endloop
  endfacet
  facet normal 0 -1 0
    outer loop
      vertex 11.05 -35 -0.5
      vertex 3.5 -35 0.5
      vertex -11.05 -35 -0.5
    endloop
  endfacet
  facet normal 0 -1 0
    outer loop
      vertex 3.5 -35 0.5
      vertex 11.05 -35 -0.5
      vertex 11.05 -35 0.5
    endloop
  endfacet
  facet normal 0 -1 0
    outer loop
      vertex -3.5 -35 0.5
      vertex 3.5 -35 3
      vertex -3.5 -35 3
    endloop
  endfacet
  facet normal 0 -1 -0
    outer loop
      vertex 3.5 -35 3
      vertex -3.5 -35 0.5
      vertex 3.5 -35 0.5
    endloop
  endfacet
  facet normal -1 0 0
    outer loop
      vertex 6.03333 -33 -0.5
      vertex 6.03333 33 0.5
      vertex 6.03333 33 -0.5
    endloop
  endfacet
  facet normal -1 -0 0
    outer loop
      vertex 6.03333 33 0.5
      vertex 6.03333 -33 -0.5
      vertex 6.03333 -33 0.5
    endloop
  endfacet
  facet normal 1 -0 0
    outer loop
      vertex -6.03333 -33 0.5
      vertex -6.03333 33 -0.5
      vertex -6.03333 33 0.5
    endloop
  endfacet
  facet normal 1 0 0
    outer loop
      vertex -6.03333 33 -0.5
      vertex -6.03333 -33 0.5
      vertex -6.03333 -33 -0.5
    endloop
  endfacet
  facet normal 0 -1 0
    outer loop
      vertex -3.5 33 0.5
      vertex 3.5 33 3
      vertex -3.5 33 3
    endloop
  endfacet
  facet normal 0 -1 0
    outer loop
      vertex -3.5 33 0.5
      vertex 3.5 33 0.5
      vertex 3.5 33 3
    endloop
  endfacet
  facet normal 0 -1 0
    outer loop
      vertex -3.5 33 0
      vertex 3.5 33 0.5
      vertex -3.5 33 0.5
    endloop
  endfacet
  facet normal 0 -1 -0
    outer loop
      vertex 3.5 33 0.5
      vertex -3.5 33 0
      vertex 3.5 33 0
    endloop
  endfacet
  facet normal 0 -1 0
    outer loop
      vertex -6.03333 33 0.5
      vertex -3.5 33 0
      vertex -3.5 33 0.5
    endloop
  endfacet
  facet normal 0 -1 -0
    outer loop
      vertex -3.5 33 0
      vertex -6.03333 33 -0.5
      vertex 3.5 33 0
    endloop
  endfacet
  facet normal 0 -1 0
    outer loop
      vertex -6.03333 33 -0.5
      vertex -3.5 33 0
      vertex -6.03333 33 0.5
    endloop
  endfacet
  facet normal 0 -1 0
    outer loop
      vertex 3.5 33 0
      vertex 6.03333 33 0.5
      vertex 3.5 33 0.5
    endloop
  endfacet
  facet normal 0 -1 0
    outer loop
      vertex 3.5 33 0
      vertex 6.03333 33 -0.5
      vertex 6.03333 33 0.5
    endloop
  endfacet
  facet normal 0 -1 0
    outer loop
      vertex 6.03333 33 -0.5
      vertex 3.5 33 0
      vertex -6.03333 33 -0.5
    endloop
  endfacet
  facet normal 0 1 -0
    outer loop
      vertex 3.5 -33 0.5
      vertex -3.5 -33 3
      vertex 3.5 -33 3
    endloop
  endfacet
  facet normal 0 1 0
    outer loop
      vertex 3.5 -33 0.5
      vertex -3.5 -33 0.5
      vertex -3.5 -33 3
    endloop
  endfacet
  facet normal 0 1 -0
    outer loop
      vertex 3.5 -33 0
      vertex -3.5 -33 0.5
      vertex 3.5 -33 0.5
    endloop
  endfacet
  facet normal 0 1 0
    outer loop
      vertex -3.5 -33 0.5
      vertex 3.5 -33 0
      vertex -3.5 -33 0
    endloop
  endfacet
  facet normal 0 1 0
    outer loop
      vertex 6.03333 -33 0.5
      vertex 3.5 -33 0
      vertex 3.5 -33 0.5
    endloop
  endfacet
  facet normal 0 1 0
    outer loop
      vertex 3.5 -33 0
      vertex 6.03333 -33 -0.5
      vertex -3.5 -33 0
    endloop
  endfacet
  facet normal 0 1 -0
    outer loop
      vertex 6.03333 -33 -0.5
      vertex 3.5 -33 0
      vertex 6.03333 -33 0.5
    endloop
  endfacet
  facet normal 0 1 -0
    outer loop
      vertex -3.5 -33 0
      vertex -6.03333 -33 0.5
      vertex -3.5 -33 0.5
    endloop
  endfacet
  facet normal 0 1 0
    outer loop
      vertex -3.5 -33 0
      vertex -6.03333 -33 -0.5
      vertex -6.03333 -33 0.5
    endloop
  endfacet
  facet normal 0 1 0
    outer loop
      vertex -6.03333 -33 -0.5
      vertex -3.5 -33 0
      vertex 6.03333 -33 -0.5
    endloop
  endfacet
  facet normal 0 1 -0
    outer loop
      vertex 7.20464 5 14.5268
      vertex 7.05 5 15.0833
      vertex 11.05 5 15.0833
    endloop
  endfacet
  facet normal 0 1 0
    outer loop
      vertex 7.05 5 15.0833
      vertex 7.20464 5 14.5268
      vertex 7.05 5 14.6901
    endloop
  endfacet
  facet normal 0 1 0
    outer loop
      vertex 11.05 5 15.0833
      vertex 8.21356 5 12.85
      vertex 7.20464 5 14.5268
    endloop
  endfacet
  facet normal 0 1 0
    outer loop
      vertex 11.05 5 15.0833
      vertex 8.83842 5 10.9955
      vertex 8.21356 5 12.85
    endloop
  endfacet
  facet normal 0 1 0
    outer loop
      vertex 11.05 5 15.0833
      vertex 9.05 5 9.05
      vertex 8.83842 5 10.9955
    endloop
  endfacet
  facet normal 0 1 0
    outer loop
      vertex 11.05 5 15.0833
      vertex 11.05 5 0.5
      vertex 9.05 5 9.05
    endloop
  endfacet
  facet normal 0 0 0
    outer loop
      vertex 11.05 5 0
      vertex 11.05 5 0.5
      vertex 11.05 5 15.0833
    endloop
  endfacet
  facet normal 0 1 0
    outer loop
      vertex 9.05 5 9.05
      vertex 11.05 5 0.5
      vertex 9.05 5 0.5
    endloop
  endfacet
  facet normal -0 0 1
    outer loop
      vertex 7.05 5 15.0833
      vertex 11.05 -5 15.0833
      vertex 11.05 5 15.0833
    endloop
  endfacet
  facet normal 0 0 1
    outer loop
      vertex 11.05 -5 15.0833
      vertex 7.05 5 15.0833
      vertex 7.05 -5 15.0833
    endloop
  endfacet
  facet normal 0 -1 0
    outer loop
      vertex 7.20464 -5 14.5268
      vertex 7.05 -5 15.0833
      vertex 7.05 -5 14.6901
    endloop
  endfacet
  facet normal 0 -1 0
    outer loop
      vertex 7.05 -5 15.0833
      vertex 7.20464 -5 14.5268
      vertex 11.05 -5 15.0833
    endloop
  endfacet
  facet normal 0 -1 0
    outer loop
      vertex 8.21356 -5 12.85
      vertex 11.05 -5 15.0833
      vertex 7.20464 -5 14.5268
    endloop
  endfacet
  facet normal 0 -1 0
    outer loop
      vertex 8.83842 -5 10.9955
      vertex 11.05 -5 15.0833
      vertex 8.21356 -5 12.85
    endloop
  endfacet
  facet normal 0 -1 0
    outer loop
      vertex 8.83842 -5 10.9955
      vertex 9.05 -5 9.05
      vertex 11.05 -5 15.0833
    endloop
  endfacet
  facet normal 0 -1 0
    outer loop
      vertex 11.05 -5 0.5
      vertex 9.05 -5 9.05
      vertex 9.05 -5 0.5
    endloop
  endfacet
  facet normal 0 -1 0
    outer loop
      vertex 9.05 -5 9.05
      vertex 11.05 -5 0.5
      vertex 11.05 -5 15.0833
    endloop
  endfacet
  facet normal 0 -0 0
    outer loop
      vertex 11.05 -5 0.5
      vertex 11.05 -5 0
      vertex 11.05 -5 15.0833
    endloop
  endfacet
  facet normal -1 0 0
    outer loop
      vertex 9.05 -5 0.5
      vertex 9.05 5 9.05
      vertex 9.05 5 0.5
    endloop
  endfacet
  facet normal -1 -0 0
    outer loop
      vertex 9.05 5 9.05
      vertex 9.05 -5 0.5
      vertex 9.05 -5 9.05
    endloop
  endfacet
  facet normal 1 -0 0
    outer loop
      vertex 11.05 -5 15.0833
      vertex 11.05 5 0
      vertex 11.05 5 15.0833
    endloop
  endfacet
  facet normal 1 0 0
    outer loop
      vertex 11.05 5 0
      vertex 11.05 -5 15.0833
      vertex 11.05 -5 0
    endloop
  endfacet
  facet normal -1 0 0
    outer loop
      vertex 7.05 -5 14.6901
      vertex 7.05 5 15.0833
      vertex 7.05 5 14.6901
    endloop
  endfacet
  facet normal -1 -0 0
    outer loop
      vertex 7.05 5 15.0833
      vertex 7.05 -5 14.6901
      vertex 7.05 -5 15.0833
    endloop
  endfacet
  facet normal 0 -1 0
    outer loop
      vertex -7.75456 -5 13.7158
      vertex -7.05 -5 15.0833
      vertex -11.05 -5 15.0833
    endloop
  endfacet
  facet normal 0 -1 -0
    outer loop
      vertex -7.05 -5 15.0833
      vertex -7.75456 -5 13.7158
      vertex -7.05 -5 14.6426
    endloop
  endfacet
  facet normal 0 -1 0
    outer loop
      vertex -11.05 -5 15.0833
      vertex -8.57626 -5 11.9397
      vertex -7.75456 -5 13.7158
    endloop
  endfacet
  facet normal 0 -1 0
    outer loop
      vertex -11.05 -5 15.0833
      vertex -8.99695 -5 10.0285
      vertex -8.57626 -5 11.9397
    endloop
  endfacet
  facet normal 0 -1 0
    outer loop
      vertex -11.05 -5 15.0833
      vertex -9.05 -5 9.05
      vertex -8.99695 -5 10.0285
    endloop
  endfacet
  facet normal 0 -1 0
    outer loop
      vertex -11.05 -5 15.0833
      vertex -11.05 -5 0.5
      vertex -9.05 -5 9.05
    endloop
  endfacet
  facet normal 0 0 0
    outer loop
      vertex -11.05 -5 0
      vertex -11.05 -5 0.5
      vertex -11.05 -5 15.0833
    endloop
  endfacet
  facet normal 0 -1 -0
    outer loop
      vertex -8.99695 -5 10.0285
      vertex -9.05 -5 9.05
      vertex -8.99695 -5 9.05
    endloop
  endfacet
  facet normal 0 -1 -0
    outer loop
      vertex -9.05 -5 9.05
      vertex -11.05 -5 0.5
      vertex -9.05 -5 0.5
    endloop
  endfacet
  facet normal -0 0 1
    outer loop
      vertex -11.05 5 15.0833
      vertex -7.05 -5 15.0833
      vertex -7.05 5 15.0833
    endloop
  endfacet
  facet normal 0 0 1
    outer loop
      vertex -7.05 -5 15.0833
      vertex -11.05 5 15.0833
      vertex -11.05 -5 15.0833
    endloop
  endfacet
  facet normal 0 1 0
    outer loop
      vertex -7.75456 5 13.7158
      vertex -7.05 5 15.0833
      vertex -7.05 5 14.6426
    endloop
  endfacet
  facet normal 0 1 0
    outer loop
      vertex -7.05 5 15.0833
      vertex -7.75456 5 13.7158
      vertex -11.05 5 15.0833
    endloop
  endfacet
  facet normal 0 1 -0
    outer loop
      vertex -8.57626 5 11.9397
      vertex -11.05 5 15.0833
      vertex -7.75456 5 13.7158
    endloop
  endfacet
  facet normal 0 1 -0
    outer loop
      vertex -8.99695 5 10.0285
      vertex -11.05 5 15.0833
      vertex -8.57626 5 11.9397
    endloop
  endfacet
  facet normal 0 1 0
    outer loop
      vertex -9.05 5 9.05
      vertex -8.99695 5 10.0285
      vertex -8.99695 5 9.05
    endloop
  endfacet
  facet normal 0 1 0
    outer loop
      vertex -8.99695 5 10.0285
      vertex -9.05 5 9.05
      vertex -11.05 5 15.0833
    endloop
  endfacet
  facet normal 0 1 0
    outer loop
      vertex -11.05 5 0.5
      vertex -9.05 5 9.05
      vertex -9.05 5 0.5
    endloop
  endfacet
  facet normal 0 1 0
    outer loop
      vertex -9.05 5 9.05
      vertex -11.05 5 0.5
      vertex -11.05 5 15.0833
    endloop
  endfacet
  facet normal 0 -0 0
    outer loop
      vertex -11.05 5 0.5
      vertex -11.05 5 0
      vertex -11.05 5 15.0833
    endloop
  endfacet
  facet normal 1 -0 0
    outer loop
      vertex -9.05 -5 9.05
      vertex -9.05 5 0.5
      vertex -9.05 5 9.05
    endloop
  endfacet
  facet normal 1 0 0
    outer loop
      vertex -9.05 5 0.5
      vertex -9.05 -5 9.05
      vertex -9.05 -5 0.5
    endloop
  endfacet
  facet normal -1 0 0
    outer loop
      vertex -11.05 -5 0
      vertex -11.05 5 15.0833
      vertex -11.05 5 0
    endloop
  endfacet
  facet normal -1 -0 0
    outer loop
      vertex -11.05 5 15.0833
      vertex -11.05 -5 0
      vertex -11.05 -5 15.0833
    endloop
  endfacet
  facet normal 0 0 -1
    outer loop
      vertex -9.05 -5 9.05
      vertex -8.99695 5 9.05
      vertex -8.99695 -5 9.05
    endloop
  endfacet
  facet normal -0 0 -1
    outer loop
      vertex -8.99695 5 9.05
      vertex -9.05 -5 9.05
      vertex -9.05 5 9.05
    endloop
  endfacet
  facet normal 1 -0 0
    outer loop
      vertex -7.05 -5 15.0833
      vertex -7.05 5 14.6426
      vertex -7.05 5 15.0833
    endloop
  endfacet
  facet normal 1 0 0
    outer loop
      vertex -7.05 5 14.6426
      vertex -7.05 -5 15.0833
      vertex -7.05 -5 14.6426
    endloop
  endfacet
  facet normal -0.947652 0 -0.319304
    outer loop
      vertex 8.83842 -5 10.9955
      vertex 8.21356 5 12.85
      vertex 8.83842 5 10.9955
    endloop
  endfacet
  facet normal -0.947652 -0 -0.319304
    outer loop
      vertex 8.21356 5 12.85
      vertex 8.83842 -5 10.9955
      vertex 8.21356 -5 12.85
    endloop
  endfacet
  facet normal -0.994138 0 -0.108116
    outer loop
      vertex 9.05 -5 9.05
      vertex 8.83842 5 10.9955
      vertex 9.05 5 9.05
    endloop
  endfacet
  facet normal -0.994138 -0 -0.108116
    outer loop
      vertex 8.83842 5 10.9955
      vertex 9.05 -5 9.05
      vertex 8.83842 -5 10.9955
    endloop
  endfacet
  facet normal -0.856852 0 -0.515562
    outer loop
      vertex 8.21356 -5 12.85
      vertex 7.20464 5 14.5268
      vertex 8.21356 5 12.85
    endloop
  endfacet
  facet normal -0.856852 -0 -0.515562
    outer loop
      vertex 7.20464 5 14.5268
      vertex 8.21356 -5 12.85
      vertex 7.20464 -5 14.5268
    endloop
  endfacet
  facet normal 1 -0 0
    outer loop
      vertex -8.99695 -5 10.0285
      vertex -8.99695 5 9.05
      vertex -8.99695 5 10.0285
    endloop
  endfacet
  facet normal 1 0 0
    outer loop
      vertex -8.99695 5 9.05
      vertex -8.99695 -5 10.0285
      vertex -8.99695 -5 9.05
    endloop
  endfacet
  facet normal 0.97662 0 -0.214972
    outer loop
      vertex -8.57626 -5 11.9397
      vertex -8.99695 5 10.0285
      vertex -8.57626 5 11.9397
    endloop
  endfacet
  facet normal 0.97662 0 -0.214972
    outer loop
      vertex -8.99695 5 10.0285
      vertex -8.57626 -5 11.9397
      vertex -8.99695 -5 10.0285
    endloop
  endfacet
  facet normal -0.726098 0 -0.687592
    outer loop
      vertex 7.20464 -5 14.5268
      vertex 7.05 5 14.6901
      vertex 7.20464 5 14.5268
    endloop
  endfacet
  facet normal -0.726098 -0 -0.687592
    outer loop
      vertex 7.05 5 14.6901
      vertex 7.20464 -5 14.5268
      vertex 7.05 -5 14.6901
    endloop
  endfacet
  facet normal 0.907578 0 -0.419884
    outer loop
      vertex -7.75456 -5 13.7158
      vertex -8.57626 5 11.9397
      vertex -7.75456 5 13.7158
    endloop
  endfacet
  facet normal 0.907578 0 -0.419884
    outer loop
      vertex -8.57626 5 11.9397
      vertex -7.75456 -5 13.7158
      vertex -8.57626 -5 11.9397
    endloop
  endfacet
  facet normal 0.796083 0 -0.605188
    outer loop
      vertex -7.05 -5 14.6426
      vertex -7.75456 5 13.7158
      vertex -7.05 5 14.6426
    endloop
  endfacet
  facet normal 0.796083 0 -0.605188
    outer loop
      vertex -7.75456 5 13.7158
      vertex -7.05 -5 14.6426
      vertex -7.75456 -5 13.7158
    endloop
  endfacet
  facet normal 1 -0 0
    outer loop
      vertex 3.5 -35 3
      vertex 3.5 -33 0.5
      vertex 3.5 -33 3
    endloop
  endfacet
  facet normal 1 0 0
    outer loop
      vertex 3.5 -33 0.5
      vertex 3.5 -35 3
      vertex 3.5 -35 0.5
    endloop
  endfacet
  facet normal -0 0 1
    outer loop
      vertex -3.5 -33 3
      vertex 3.5 -35 3
      vertex 3.5 -33 3
    endloop
  endfacet
  facet normal 0 0 1
    outer loop
      vertex 3.5 -35 3
      vertex -3.5 -33 3
      vertex -3.5 -35 3
    endloop
  endfacet
  facet normal -1 0 0
    outer loop
      vertex -3.5 -35 0.5
      vertex -3.5 -33 3
      vertex -3.5 -33 0.5
    endloop
  endfacet
  facet normal -1 -0 0
    outer loop
      vertex -3.5 -33 3
      vertex -3.5 -35 0.5
      vertex -3.5 -35 3
    endloop
  endfacet
  facet normal 1 -0 0
    outer loop
      vertex 3.5 33 3
      vertex 3.5 35 0.5
      vertex 3.5 35 3
    endloop
  endfacet
  facet normal 1 0 0
    outer loop
      vertex 3.5 35 0.5
      vertex 3.5 33 3
      vertex 3.5 33 0.5
    endloop
  endfacet
  facet normal -0 0 1
    outer loop
      vertex -3.5 35 3
      vertex 3.5 33 3
      vertex 3.5 35 3
    endloop
  endfacet
  facet normal 0 0 1
    outer loop
      vertex 3.5 33 3
      vertex -3.5 35 3
      vertex -3.5 33 3
    endloop
  endfacet
  facet normal -1 0 0
    outer loop
      vertex -3.5 33 0.5
      vertex -3.5 35 3
      vertex -3.5 35 0.5
    endloop
  endfacet
  facet normal -1 -0 0
    outer loop
      vertex -3.5 35 3
      vertex -3.5 33 0.5
      vertex -3.5 33 3
    endloop
  endfacet
endsolid OpenSCAD_Model
